<svg xmlns="http://www.w3.org/2000/svg" width="1024" height="1024" fill="none"><g clip-path="url(#a)"><path fill="#0C0C0C" d="M682.922 553.065c19.087 0 34.449 5.538 46.095 16.616 11.837 11.077 17.753 27.508 17.753 49.293v85.295h-44.665v-78.648c0-11.816-2.673-20.586-8.02-26.309-5.343-5.908-13.076-8.862-23.191-8.862-11.263 0-20.231 3.416-26.912 10.247-6.681 6.646-10.024 16.616-10.024 29.908v73.664h-44.665V555.28h42.661v17.447c5.92-6.278 13.267-11.078 22.048-14.401 8.78-3.508 18.418-5.261 28.92-5.261Zm263.773-54.279v205.483h-42.661v-17.17c-11.072 12.924-27.103 19.385-48.103 19.385-14.506 0-27.677-3.138-39.51-9.415-11.645-6.277-20.804-15.232-27.486-26.863-6.681-11.63-10.024-25.108-10.024-40.432 0-15.323 3.343-28.801 10.024-40.431 6.682-11.632 15.841-20.586 27.486-26.863 11.833-6.277 25.004-9.415 39.51-9.415 19.661 0 35.027 6 46.099 18v-72.279h44.665Zm-83.031 172.251c11.263 0 20.613-3.692 28.06-11.077 7.442-7.57 11.162-17.631 11.162-30.186 0-12.554-3.72-22.523-11.162-29.908-7.447-7.57-16.797-11.354-28.06-11.354-11.454 0-20.905 3.784-28.347 11.354-7.446 7.385-11.167 17.354-11.167 29.908 0 12.555 3.721 22.616 11.167 30.186 7.442 7.385 16.893 11.077 28.347 11.077Zm-419.37-320.241v82.248c0 21.97-6.204 38.955-18.611 50.956-12.407 12-30.063 18-52.969 18-11.07 0-20.901-1.662-29.49-4.985-8.399-3.323-15.462-8.677-21.188-16.062-5.726 7.385-12.789 12.739-21.187 16.062-8.399 3.323-18.325 4.985-29.777 4.985-23.097 0-40.753-6-52.969-18-12.217-12.001-18.325-28.986-18.325-50.956v-82.248h44.666v78.925c0 12.37 2.195 21.508 6.585 27.416 4.391 5.723 11.262 8.585 20.615 8.585 9.544 0 16.607-2.954 21.188-8.862 4.581-5.907 6.871-14.954 6.871-27.139v-78.925h44.666v78.925c0 12.185 2.291 21.232 6.872 27.139 4.581 5.908 11.643 8.862 21.187 8.862 9.353 0 16.225-2.862 20.615-8.585 4.39-5.908 6.586-15.046 6.586-27.416v-78.925h44.665Zm2.657 354.714v-82.248c0-21.97-6.203-38.955-18.61-50.956-12.407-12-30.064-18.001-52.969-18.001-11.071 0-20.901 1.662-29.491 4.985-8.399 3.323-15.461 8.677-21.187 16.062-5.727-7.385-12.79-12.739-21.188-16.062-8.399-3.323-18.324-4.985-29.777-4.985-23.097 0-40.753 6.001-52.969 18.001-12.216 12.001-18.324 28.986-18.324 50.956v82.248h44.665v-78.925c0-12.37 2.196-21.509 6.586-27.417 4.39-5.723 11.262-8.585 20.615-8.585 9.543 0 16.606 2.954 21.187 8.862 4.581 5.908 6.872 14.954 6.872 27.14v78.925h44.666v-78.925c0-12.186 2.29-21.232 6.871-27.14 4.581-5.908 11.644-8.862 21.188-8.862 9.353 0 16.224 2.862 20.614 8.585 4.391 5.908 6.586 15.047 6.586 27.417v78.925h44.665ZM170.394 492.585c-4.39 3.138-9.831 5.538-16.321 7.2-6.298 1.477-12.884 2.215-19.756 2.215-18.515 0-32.735-4.523-42.66-13.569-9.926-9.047-14.89-22.339-14.89-39.879V315.789h44.666v36.279h38.081v33.231h-38.081v62.7c0 6.277 1.623 11.169 4.868 14.677 3.245 3.323 7.921 4.985 14.029 4.985 6.872 0 12.98-1.847 18.325-5.539l11.739 30.463Zm513.119-143.198c19.088 0 34.454 5.538 46.1 16.616 11.832 11.077 17.748 27.508 17.748 49.293v85.295h-44.665v-78.648c0-11.816-2.673-20.586-8.016-26.309-5.346-5.908-13.075-8.862-23.191-8.862-11.263 0-20.235 3.416-26.916 10.247-6.681 6.646-10.02 16.616-10.02 29.909v73.663h-44.665V351.602h42.661v17.447c5.917-6.277 13.267-11.078 22.048-14.401 8.781-3.508 18.418-5.261 28.916-5.261Z"/><path fill="#FF7400" d="M485.959 378c1.732-15.723 15.447-27.649 31.794-27.649 16.249 0 29.916 11.786 31.767 27.4L561.352 502h-85.895l10.502-124Zm64.891 300c-1.733 15.723-15.447 27.649-31.794 27.649-16.249 0-29.916-11.786-31.768-27.4L475.457 554h85.895L550.85 678Zm-32.842-344c19.914 0 36.06-15.222 36.06-34s-16.146-34-36.06-34c-19.913 0-36.056 15.222-36.056 34s16.143 34 36.056 34Zm.792 388c-19.915 0-36.06 15.222-36.06 34s16.145 34 36.06 34c19.912 0 36.055-15.222 36.055-34s-16.143-34-36.055-34Z"/></g><defs><clipPath id="a"><path fill="#fff" d="M0 0h1024v1024H0z"/></clipPath></defs></svg>