<?xml version="1.0" encoding="UTF-8"?>
<svg version="1.1" xmlns="http://www.w3.org/2000/svg" width="5000" height="5000">
<path d="M0 0 C0.63474243 0.27612122 1.26948486 0.55224243 1.92346191 0.83673096 C34.49399739 15.04026008 66.82088267 30.52149349 97.46777344 48.52880859 C100.17213763 50.10000977 102.89834313 51.62636504 105.6328125 53.14453125 C118.7055882 60.40840915 131.44035047 68.11361218 144.06103516 76.13574219 C146.93382044 77.95802068 149.81520346 79.76587246 152.69921875 81.5703125 C164.26259785 88.8292753 175.53567917 96.41718295 186.65673828 104.3359375 C188.91910176 105.94255028 191.18996879 107.53616643 193.46484375 109.125 C202.43328267 115.39611834 211.25503491 121.83665006 219.96875 128.45703125 C222.04935333 130.03748955 224.13403669 131.61246844 226.21875 133.1875 C234.08979435 139.15299874 241.8502197 145.23056351 249.47265625 151.51147461 C250.68743734 152.5102267 251.90755979 153.50252253 253.13330078 154.48779297 C254.46198313 155.56415426 255.77102017 156.66496162 257.06591797 157.78173828 C258.99180943 159.37139875 260.81386535 160.79294074 263 162 C267.52939442 161.46078638 270.67205213 157.9571049 274 155 C279.84103275 149.94113043 285.85637166 145.16714731 292.01806641 140.50488281 C294.30367147 138.76942216 296.5796766 137.02174564 298.85546875 135.2734375 C373.40176998 78.08362707 455.32706588 30.22002356 874.1875 -86.75 C874.87384521 -86.80925659 875.56019043 -86.86851318 876.26733398 -86.92956543 C889.17376139 -88.02663525 902.04059852 -88.46002494 915 -89 C915 172.36 915 433.72 915 703 C902 706 902 706 898.35058594 706.84033203 C852.6178433 717.49052951 810.77940245 736.71086812 774 766 C773.01773438 766.76828125 772.03546875 767.5365625 771.0234375 768.328125 C762.93971531 774.76648781 755.46601013 781.86566802 748 789 C747.12859375 789.82886719 746.2571875 790.65773438 745.359375 791.51171875 C740.63424587 796.11293715 736.41553895 800.99220079 732.30078125 806.14453125 C730.78805584 808.02195447 729.24420825 809.87479414 727.66796875 811.69921875 C716.23578353 824.94134606 706.55453948 839.75644216 698 855 C697.57509277 855.75410156 697.15018555 856.50820312 696.71240234 857.28515625 C688.85964857 871.36868442 682.61327572 885.89448147 677 901 C676.69723145 901.81033691 676.39446289 902.62067383 676.08251953 903.45556641 C665.97237361 930.92632824 659.81099696 961.35663276 659.86938947 990.6636259 C659.86741696 991.68460446 659.86544445 992.70558303 659.86341216 993.75750034 C659.85802371 997.17125059 659.85969144 1000.58495993 659.8613348 1003.99871349 C659.85888622 1006.48440499 659.85600201 1008.97009608 659.85272202 1011.45578662 C659.84657574 1016.8732643 659.84351352 1022.29073023 659.84316199 1027.70821115 C659.84261587 1035.81822478 659.8363132 1043.92822707 659.82889687 1052.03823697 C659.81642281 1065.86069266 659.80864497 1079.68314743 659.80341911 1093.5056076 C659.79810431 1107.51249968 659.79062196 1121.5193881 659.78049088 1135.52627754 C659.77985224 1136.41100737 659.77921361 1137.29573721 659.77855562 1138.20727703 C659.77528923 1142.71852764 659.77198753 1147.22977821 659.76867336 1151.74102878 C659.74475792 1184.39305682 659.72564399 1217.04508625 659.70907402 1249.69711876 C659.69264994 1282.03393404 659.67417238 1314.37074709 659.65294075 1346.70755959 C659.65195316 1348.21384678 659.65195316 1348.21384678 659.65094561 1349.75056401 C659.64493111 1358.92228247 659.6388913 1368.09400091 659.63282111 1377.26571932 C659.61773149 1400.06576355 659.60295937 1422.86580797 659.58840275 1445.66585255 C659.58773961 1446.70412565 659.58707647 1447.74239876 659.58639324 1448.81213468 C659.55416176 1499.32031165 659.52558829 1549.82849061 659.49731445 1600.33666992 C659.48750055 1617.86452232 659.47767048 1635.3923747 659.46777344 1652.92022705 C659.46685274 1654.55084185 659.46685274 1654.55084185 659.46591344 1656.21439837 C659.43736139 1706.74273171 659.40620149 1757.27106334 659.37439038 1807.79939472 C659.37230948 1811.10531271 659.3702303 1814.41123071 659.36815169 1817.7171487 C659.34648877 1852.16956562 659.32470049 1886.62198247 659.30285783 1921.07439928 C659.3022338 1922.05869748 659.30160977 1923.04299568 659.30096683 1924.05712109 C659.2998313 1925.84808875 659.29869563 1927.6390564 659.29755975 1929.43002405 C659.19176112 2096.28667916 659.09669749 2263.14333891 659 2430 C398.3 2430 137.6 2430 -131 2430 C-131.03738281 2325.61816406 -131.07476563 2221.23632812 -131.11328125 2113.69140625 C-131.14173632 2051.6618695 -131.17037887 1989.63233413 -131.20281637 1927.60279953 C-131.20383484 1925.65296782 -131.20485317 1923.7031361 -131.20587139 1921.75330438 C-131.20638196 1920.77564022 -131.20689253 1919.79797607 -131.20741857 1918.79068573 C-131.22544816 1884.25080206 -131.24328276 1849.7109183 -131.26077582 1815.17103435 C-131.26244712 1811.87445022 -131.26412354 1808.57786609 -131.26580121 1805.28128196 C-131.29146516 1754.81469946 -131.31463692 1704.3481174 -131.33044434 1653.88153076 C-131.3307842 1652.7966412 -131.33112406 1651.71175164 -131.33147423 1650.59398664 C-131.33693827 1633.1028674 -131.34218959 1615.61174809 -131.34741267 1598.12062877 C-131.3624639 1547.72768655 -131.37909369 1497.33474708 -131.40612316 1446.94180965 C-131.40695615 1445.38666153 -131.40695615 1445.38666153 -131.40780597 1443.80009627 C-131.42002639 1421.03802056 -131.43305541 1398.27594538 -131.44684957 1375.51387058 C-131.45238603 1366.35452743 -131.45780614 1357.19518422 -131.46318626 1348.03584099 C-131.46377789 1347.03340437 -131.46436952 1346.03096776 -131.46497908 1344.99815427 C-131.48396888 1312.72454312 -131.4934957 1280.45093773 -131.49803595 1248.17732156 C-131.50265476 1215.65422688 -131.51660165 1183.13115055 -131.54342634 1150.60806619 C-131.54713509 1146.10863922 -131.55073742 1141.60921218 -131.55427551 1137.10978508 C-131.5549729 1136.22780749 -131.55567029 1135.34582989 -131.55638881 1134.43712571 C-131.56713429 1120.49932372 -131.56786595 1106.5615401 -131.56436801 1092.62373517 C-131.56113169 1078.90162186 -131.56861812 1065.17954854 -131.58732411 1051.45744725 C-131.59795712 1043.42377937 -131.60054458 1035.39020968 -131.59086547 1027.35654003 C-131.58458115 1021.37285571 -131.59408559 1015.38930105 -131.60944067 1009.4056288 C-131.61320443 1007.01420631 -131.61206511 1004.6227692 -131.60515601 1002.23135373 C-131.54958651 981.33733819 -133.34878957 960.7646492 -137.75 940.3125 C-138.13406006 938.50072266 -138.13406006 938.50072266 -138.52587891 936.65234375 C-140.96858215 925.50925869 -144.17455162 914.74005787 -148 904 C-148.30131836 903.14035645 -148.60263672 902.28071289 -148.91308594 901.39501953 C-156.14859175 880.93270283 -165.43619593 861.37221225 -177 843 C-177.65355469 841.96101563 -178.30710937 840.92203125 -178.98046875 839.8515625 C-187.66344241 826.4958958 -197.52543207 813.98455875 -208 802 C-208.73605469 801.15179687 -209.47210937 800.30359375 -210.23046875 799.4296875 C-219.70513776 788.6951809 -229.74664825 778.85806001 -241 770 C-242.13086279 769.07008257 -243.25966091 768.13765038 -244.38671875 767.203125 C-290.5263884 729.17092567 -349.42155186 705.66569793 -409 701 C-409.70914551 700.94360352 -410.41829102 700.88720703 -411.14892578 700.82910156 C-482.29092209 695.41211694 -555.99693777 715.68373328 -613 759 C-613.56879883 759.43135254 -614.13759766 759.86270508 -614.72363281 760.30712891 C-618.87062574 763.47108813 -622.95284665 766.70948342 -627 770 C-627.84232178 770.68352539 -627.84232178 770.68352539 -628.70166016 771.38085938 C-642.76960714 782.88841566 -655.85126445 795.63141302 -667 810 C-667.94755571 811.16127991 -668.89829595 812.31996589 -669.8515625 813.4765625 C-676.82010061 821.96745132 -683.14054364 830.71025889 -689 840 C-689.37189453 840.5868457 -689.74378906 841.17369141 -690.12695312 841.77832031 C-701.94200997 860.56363556 -711.2739248 880.20886522 -719 901 C-719.30276855 901.81033691 -719.60553711 902.62067383 -719.91748047 903.45556641 C-730.02762639 930.92632824 -736.18900304 961.35663276 -736.13061053 990.6636259 C-736.13258304 991.68460446 -736.13455555 992.70558303 -736.13658784 993.75750034 C-736.14197629 997.17125059 -736.14030856 1000.58495993 -736.1386652 1003.99871349 C-736.14111378 1006.48440499 -736.14399799 1008.97009608 -736.14727798 1011.45578662 C-736.15342426 1016.8732643 -736.15648648 1022.29073023 -736.15683801 1027.70821115 C-736.15738413 1035.81822478 -736.1636868 1043.92822707 -736.17110313 1052.03823697 C-736.18357719 1065.86069266 -736.19135503 1079.68314743 -736.19658089 1093.5056076 C-736.20189569 1107.51249968 -736.20937804 1121.5193881 -736.21950912 1135.52627754 C-736.22014776 1136.41100737 -736.22078639 1137.29573721 -736.22144438 1138.20727703 C-736.22471077 1142.71852764 -736.22801247 1147.22977821 -736.23132664 1151.74102878 C-736.25524208 1184.39305682 -736.27435601 1217.04508625 -736.29092598 1249.69711876 C-736.30735006 1282.03393404 -736.32582762 1314.37074709 -736.34705925 1346.70755959 C-736.34771764 1347.71175105 -736.34837604 1348.71594251 -736.34905439 1349.75056401 C-736.35506889 1358.92228247 -736.3611087 1368.09400091 -736.36717889 1377.26571932 C-736.38226851 1400.06576355 -736.39704063 1422.86580797 -736.41159725 1445.66585255 C-736.41226039 1446.70412565 -736.41292353 1447.74239876 -736.41360676 1448.81213468 C-736.44583824 1499.32031165 -736.47441171 1549.82849061 -736.50268555 1600.33666992 C-736.51249945 1617.86452232 -736.52232952 1635.3923747 -736.53222656 1652.92022705 C-736.53284036 1654.00730359 -736.53345416 1655.09438012 -736.53408656 1656.21439837 C-736.56263861 1706.74273171 -736.59379851 1757.27106334 -736.62560962 1807.79939472 C-736.62769052 1811.10531271 -736.6297697 1814.41123071 -736.63184831 1817.7171487 C-736.65351123 1852.16956562 -736.67529951 1886.62198247 -736.69714217 1921.07439928 C-736.6977662 1922.05869748 -736.69839023 1923.04299568 -736.69903317 1924.05712109 C-736.7001687 1925.84808875 -736.70130437 1927.6390564 -736.70244025 1929.43002405 C-736.80823888 2096.28667916 -736.90330251 2263.14333891 -737 2430 C-997.7 2430 -1258.4 2430 -1527 2430 C-1527.08080295 2069.09809836 -1527.08080295 2069.09809836 -1527.09632993 1930.98712111 C-1527.09654868 1929.04832329 -1527.09676752 1927.10952548 -1527.09698644 1925.17072767 C-1527.0970962 1924.19859636 -1527.09720595 1923.22646504 -1527.09731903 1922.2248752 C-1527.10120177 1887.88275204 -1527.10521543 1853.54062889 -1527.10945851 1819.19850576 C-1527.10986231 1815.92099992 -1527.11026266 1812.64349407 -1527.11066218 1809.36598822 C-1527.11678656 1759.22869194 -1527.12457788 1709.09139664 -1527.1373291 1658.95410156 C-1527.1376029 1657.87741163 -1527.1378767 1656.8007217 -1527.13815879 1655.6914048 C-1527.14258307 1638.33399804 -1527.14715046 1620.97659131 -1527.15173688 1603.61918459 C-1527.16495867 1553.57273644 -1527.1771073 1503.52628905 -1527.18227959 1453.47983932 C-1527.18238666 1452.44881496 -1527.18249373 1451.41779059 -1527.18260404 1450.35552305 C-1527.18493657 1427.71201948 -1527.18672581 1405.06851589 -1527.18800197 1382.42501223 C-1527.18852515 1373.31148632 -1527.18912639 1364.19796041 -1527.18975449 1355.08443451 C-1527.18982134 1354.0870519 -1527.18988819 1353.08966929 -1527.18995707 1352.06206296 C-1527.1921433 1320.02411824 -1527.20066267 1287.98617911 -1527.21256442 1255.94823664 C-1527.22454238 1223.62605793 -1527.23018524 1191.30388463 -1527.22724798 1158.98170365 C-1527.22684192 1154.49623038 -1527.22650711 1150.0107571 -1527.22621536 1145.52528381 C-1527.2261556 1144.64614592 -1527.22609584 1143.76700802 -1527.22603427 1142.86122958 C-1527.22527845 1129.04427715 -1527.23119332 1115.22733631 -1527.24001972 1101.41038702 C-1527.24859739 1087.76152809 -1527.24981562 1074.11268389 -1527.24366363 1060.46382351 C-1527.24057614 1053.18810016 -1527.24042089 1045.91241165 -1527.24976636 1038.63669267 C-1527.28277425 1011.64027 -1527.14098625 984.67783349 -1526.09824944 957.69855881 C-1526.05858005 956.65959854 -1526.01891067 955.62063827 -1525.97803919 954.55019436 C-1522.37117903 862.74933166 -1506.51799745 771.09718575 -1432 558 C-1431.4932373 556.87078125 -1430.98647461 555.7415625 -1430.46435547 554.578125 C-1418.04303793 527.06500571 -1404.7579389 499.86018318 -1389.58300781 473.75585938 C-1387.89538055 470.81786793 -1386.25194662 467.85834156 -1384.6171875 464.890625 C-1377.14623559 451.33390329 -1369.27638483 438.11152265 -1360.95166016 425.06201172 C-1358.93124495 421.89212837 -1356.92405705 418.71412258 -1354.91796875 415.53515625 C-1347.70326426 404.13828751 -1340.3219831 392.92373396 -1332.42675781 381.98730469 C-1330.46521622 379.25510952 -1328.53898155 376.49871476 -1326.61010742 373.7434082 C-1312.64287968 353.82007513 -1297.86104367 334.64124405 -1282.47216797 315.80419922 C-1281.17728489 314.21726954 -1279.88709522 312.62651263 -1278.59765625 311.03515625 C-1273.53313894 304.79838177 -1268.33945138 298.68187754 -1263.09375 292.59765625 C-1261.08054875 290.2621662 -1259.08071839 287.91643598 -1257.09375 285.55859375 C-1250.00910435 277.17334474 -1242.59554282 269.14851728 -1235.04174805 261.18530273 C-1233.61148481 259.65447812 -1232.19755478 258.10830531 -1230.79614258 256.55102539 C-1222.35496031 247.18301995 -1213.44536372 238.29389386 -1204.51977539 229.3894043 C-1201.80433986 226.67935604 -1199.09432636 223.96396751 -1196.38476562 221.24804688 C-1194.63834158 219.50228324 -1192.89160756 217.75682963 -1191.14453125 216.01171875 C-1190.34537796 215.21054123 -1189.54622467 214.40936371 -1188.72285461 213.58390808 C-1184.53855686 209.4168579 -1180.28316728 205.39841521 -1175.79777527 201.55622864 C-1172.61185152 198.79836125 -1169.566032 195.88958412 -1166.5 193 C-1161.41388159 188.23335983 -1156.30137108 183.52744829 -1151 179 C-1149.93200501 178.07845711 -1148.8643278 177.15654587 -1147.796875 176.234375 C-1140.61945981 170.04436044 -1133.36345404 163.96827327 -1126 158 C-1124.73922178 156.96919206 -1123.47883109 155.93791001 -1122.21875 154.90625 C-1113.92129568 148.12188444 -1105.55197994 141.4621355 -1097 135 C-1096.26797363 134.44586426 -1095.53594727 133.89172852 -1094.78173828 133.32080078 C-1076.1176173 119.20797937 -1057.21504804 105.66862235 -1037.68359375 92.77734375 C-1035.4061658 91.26900355 -1033.13722091 89.74974799 -1030.875 88.21875 C-997.05883801 65.34497903 -961.21651301 45.43496773 -924.85351562 26.94464111 C-923.01370805 26.00698628 -921.17640325 25.06460442 -919.33984375 24.12060547 C-869.1771282 -1.64725215 -816.57764867 -22.04860839 -762.95471191 -39.3684082 C-761.15500977 -39.94991441 -759.35626715 -40.53438804 -757.55761719 -41.11914062 C-670.58509066 -69.24070562 -579.17303031 -84.36044064 -488 -89 C-486.97197266 -89.05784668 -485.94394531 -89.11569336 -484.88476562 -89.17529297 C-389.72960132 -94.4599486 -292.98714547 -85.50201842 0 0 Z " fill="#323232" transform="translate(2236,1330)"/>
<path d="M0 0 C44.56225525 2.34538186 44.56225525 2.34538186 62.25 4.25 C63.26218597 4.35637787 64.27437195 4.46275574 65.31723022 4.57235718 C155.61005186 14.08959303 244.94634088 33.98933882 338 69 C338.69101807 69.26514404 339.38203613 69.53028809 340.09399414 69.8034668 C372.24665867 82.17157666 403.70946022 96.08916856 434.60351562 111.32519531 C437.98680009 112.99349113 441.37605732 114.64920299 444.765625 116.3046875 C458.17188758 122.89023726 471.24154064 129.92060037 484.17773438 137.38378906 C487.00775479 139.00444089 489.85209501 140.59632327 492.703125 142.1796875 C505.7494571 149.43666804 518.46261568 157.12776468 531.06103516 165.13574219 C533.93382044 166.95802068 536.81520346 168.76587246 539.69921875 170.5703125 C551.26705381 177.83207255 562.54442726 185.42312134 573.66992188 193.34472656 C575.89326741 194.92417781 578.12436123 196.49180481 580.359375 198.0546875 C600.92883577 212.45236017 620.75701111 227.64736242 640.19580078 243.52783203 C641.78273046 244.82271511 643.37348737 246.11290478 644.96484375 247.40234375 C651.20161823 252.46686106 657.31812246 257.66054862 663.40234375 262.90625 C665.7378338 264.91945125 668.08356402 266.91928161 670.44140625 268.90625 C678.79546842 275.9643615 686.79611343 283.34517067 694.72851562 290.87207031 C696.86869748 292.87699562 699.03488231 294.85105588 701.20478821 296.82366943 C710.00599767 304.85404757 718.41886623 313.26732912 726.83154297 321.70117188 C729.3878593 324.26288646 731.94952929 326.81916106 734.51171875 329.375 C736.16177933 331.02572086 737.81152998 332.6767516 739.4609375 334.328125 C740.21523041 335.08039368 740.96952332 335.83266235 741.74667358 336.60772705 C745.82822861 340.70719342 749.73686618 344.89855668 753.5138855 349.28030396 C755.17490815 351.20239951 756.8919753 353.05943334 758.6484375 354.89453125 C759.5607312 355.854198 759.5607312 355.854198 760.49145508 356.83325195 C761.1130249 357.48640381 761.73459473 358.13955566 762.375 358.8125 C767.45735538 364.189015 772.28394154 369.6387559 776.89453125 375.42578125 C779.17200846 378.21030348 781.56312008 380.85413803 784 383.5 C788.89374231 388.82974393 793.46107316 394.36770251 798 400 C798.99768805 401.21827563 799.99644911 402.43567307 800.99609375 403.65234375 C813.2660434 418.61159743 824.87734163 434.04205389 836.29003906 449.66210938 C837.92549548 451.89813603 839.56791343 454.12890664 841.2109375 456.359375 C850.21169005 468.63716797 858.64405913 481.2771465 867 494 C867.51836426 494.78793945 868.03672852 495.57587891 868.57080078 496.38769531 C891.1231253 530.73484713 911.22217273 566.46924442 930 603 C930.50611816 603.9782373 931.01223633 604.95647461 931.53369141 605.96435547 C967.2595965 675.19667549 993.69983378 749.62826073 1013 825 C1013.20862671 825.81388184 1013.41725342 826.62776367 1013.63220215 827.46630859 C1037.53352645 921.09133276 1046.10903017 1016.67884562 1046.12354947 1127.36569917 C1046.11909873 1134.72293762 1046.12068455 1142.08017225 1046.12234976 1149.43741142 C1046.12529462 1163.17956775 1046.12356831 1176.92171979 1046.11920547 1190.66387558 C1046.1148108 1204.56799684 1046.1126348 1218.47211589 1046.11310768 1232.37623787 C1046.11315072 1233.69878999 1046.11315072 1233.69878999 1046.11319463 1235.04806034 C1046.11335102 1239.5447062 1046.11354297 1244.04135206 1046.11374746 1248.53799792 C1046.11515105 1280.99600096 1046.11173775 1313.45400203 1046.10573006 1345.91200447 C1046.09979858 1378.03525871 1046.09595317 1410.15851211 1046.09487724 1442.28176689 C1046.09484283 1443.28104445 1046.09480842 1444.28032201 1046.09477296 1445.30988071 C1046.09445975 1454.43734237 1046.09417206 1463.56480404 1046.09391499 1472.69226571 C1046.09327576 1495.37757157 1046.09231655 1518.06287741 1046.09113979 1540.74818325 C1046.09108648 1541.78098464 1046.09103316 1542.81378603 1046.09097823 1543.87788443 C1046.08835954 1594.06287705 1046.08205314 1644.24786911 1046.07543945 1694.43286133 C1046.0731477 1711.83839925 1046.07087229 1729.24393717 1046.06866455 1746.6494751 C1046.0685276 1747.72903427 1046.06839065 1748.80859344 1046.06824955 1749.92086653 C1046.06190087 1800.14371937 1046.05818918 1850.3665723 1046.05513173 1900.58942543 C1046.05493116 1903.87721251 1046.05472886 1907.16499958 1046.05452599 1910.45278665 C1046.05241246 1944.71830991 1046.05042541 1978.98383319 1046.04849322 2013.24935646 C1046.0484104 2014.71786849 1046.0484104 2014.71786849 1046.04832591 2016.21604743 C1046.04822552 2017.99739482 1046.04812528 2019.77874221 1046.04802525 2021.56008961 C1046.03868769 2187.37339411 1046.01852272 2353.18669579 1046 2519 C785.3 2519 524.6 2519 256 2519 C255.96261719 2414.61816406 255.92523437 2310.23632812 255.88671875 2202.69140625 C255.85826368 2140.6618695 255.82962113 2078.63233413 255.79718363 2016.60279953 C255.79616516 2014.65296782 255.79514683 2012.7031361 255.79412861 2010.75330438 C255.79361804 2009.77564022 255.79310747 2008.79797607 255.79258143 2007.79068573 C255.77455184 1973.25080206 255.75671724 1938.7109183 255.73922418 1904.17103435 C255.73755288 1900.87445022 255.73587646 1897.57786609 255.73419879 1894.28128196 C255.70853484 1843.81469946 255.68536308 1793.3481174 255.66955566 1742.88153076 C255.6692158 1741.7966412 255.66887594 1740.71175164 255.66852577 1739.59398664 C255.66306173 1722.1028674 255.65781041 1704.61174809 255.65258733 1687.12062877 C255.6375361 1636.72768655 255.62090631 1586.33474708 255.59387684 1535.94180965 C255.59332151 1534.90504424 255.59276618 1533.86827882 255.59219403 1532.80009627 C255.57997361 1510.03802056 255.56694459 1487.27594538 255.55315043 1464.51387058 C255.54761397 1455.35452743 255.54219386 1446.19518422 255.53681374 1437.03584099 C255.53592629 1435.53218606 255.53592629 1435.53218606 255.53502092 1433.99815427 C255.51603112 1401.72454312 255.5065043 1369.45093773 255.50196405 1337.17732156 C255.49734524 1304.65422688 255.48339835 1272.13115055 255.45657366 1239.60806619 C255.45286491 1235.10863922 255.44926258 1230.60921218 255.44572449 1226.10978508 C255.44467841 1224.78681869 255.44467841 1224.78681869 255.44361119 1223.43712571 C255.43286571 1209.49932372 255.43213405 1195.5615401 255.43563199 1181.62373517 C255.43886831 1167.90162186 255.43138188 1154.17954854 255.41267589 1140.45744725 C255.40204288 1132.42377937 255.39945542 1124.39020968 255.40913453 1116.35654003 C255.41541885 1110.37285571 255.40591441 1104.38930105 255.39055933 1098.4056288 C255.38679557 1096.01420631 255.38793489 1093.6227692 255.39484399 1091.23135373 C255.45035807 1070.35817903 253.66310045 1049.80399646 249.25 1029.375 C248.99323486 1028.16900146 248.73646973 1026.96300293 248.47192383 1025.72045898 C234.44647409 961.77706273 197.63710769 899.77692234 146 859 C144.86798413 858.06859878 143.73787054 857.13488214 142.609375 856.19921875 C103.3227249 823.82238774 55.6155447 802.89191242 5.69140625 793.7265625 C2 793 2 793 0 792 C0 530.64 0 269.28 0 0 Z " fill="#F21B24" transform="translate(3245,1241)"/>
</svg>
